<mxfile host="app.diagrams.net" modified="2023-03-27T19:21:53.291Z" agent="Mozilla/5.0 (Windows NT 10.0; Win64; x64) AppleWebKit/537.36 (KHTML, like Gecko) Chrome/111.0.0.0 Safari/537.36" version="21.1.1" etag="8-3a2OPae0_2Fefcwe5_" type="github">
  <diagram name="PÃ¡gina-1" id="NohlWw-ukGf3zaYdnnS3">
    <mxGraphModel>
      <root>
        <mxCell id="0" />
        <mxCell id="1" parent="0" />
      </root>
    </mxGraphModel>
  </diagram>
</mxfile>
